<svg version="1.1" id="Layer_1" xmlns="http://www.w3.org/2000/svg" xmlns:xlink="http://www.w3.org/1999/xlink" x="0px" y="0px"
	 width="100%" viewBox="0 0 500 500" enable-background="new 0 0 500 500" xml:space="preserve">
<path fill="#FFFFFF" opacity="1.000000" stroke="none" 
	d="
M290.000000,501.000000 
	C193.333359,501.000000 97.166710,501.000000 1.000051,501.000000 
	C1.000034,334.333405 1.000034,167.666794 1.000017,1.000141 
	C167.666565,1.000094 334.333130,1.000094 500.999756,1.000047 
	C500.999847,167.666519 500.999847,334.333038 500.999939,500.999786 
	C430.833344,501.000000 360.666656,501.000000 290.000000,501.000000 
M333.500000,299.003998 
	C363.927521,299.003998 394.355042,299.003998 424.768799,299.003998 
	C424.768799,266.731873 424.768799,235.000412 424.768799,203.260834 
	C308.632355,203.260834 192.760620,203.260834 76.824844,203.260834 
	C76.824844,235.276718 76.824844,267.026978 76.824844,299.003998 
	C162.231613,299.003998 247.365814,299.003998 333.500000,299.003998 
z"/>
<path fill="#020202" opacity="1.000000" stroke="none" 
	d="
M333.000000,299.003998 
	C247.365814,299.003998 162.231613,299.003998 76.824844,299.003998 
	C76.824844,267.026978 76.824844,235.276718 76.824844,203.260834 
	C192.760620,203.260834 308.632355,203.260834 424.768799,203.260834 
	C424.768799,235.000412 424.768799,266.731873 424.768799,299.003998 
	C394.355042,299.003998 363.927521,299.003998 333.000000,299.003998 
M408.493317,295.998962 
	C412.945190,295.998962 417.397034,295.998962 421.922180,295.998962 
	C421.922180,265.801422 421.922180,236.080261 421.922180,206.246735 
	C307.675201,206.246735 193.658493,206.246735 79.495895,206.246735 
	C79.495895,236.212036 79.495895,265.931122 79.495895,295.998962 
	C189.006287,295.998962 298.251190,295.998962 408.493317,295.998962 
z"/>
<path fill="#FDFDFD" opacity="1.000000" stroke="none" 
	d="
M407.994690,295.998962 
	C298.251190,295.998962 189.006287,295.998962 79.495895,295.998962 
	C79.495895,265.931122 79.495895,236.212036 79.495895,206.246735 
	C193.658493,206.246735 307.675201,206.246735 421.922180,206.246735 
	C421.922180,236.080261 421.922180,265.801422 421.922180,295.998962 
	C417.397034,295.998962 412.945190,295.998962 407.994690,295.998962 
M122.500000,290.000336 
	C187.887695,290.000336 253.275391,290.000336 318.563782,290.000336 
	C318.563782,263.632111 318.563782,237.912003 318.563782,212.311981 
	C240.867172,212.311981 163.497635,212.311981 86.269852,212.311981 
	C86.269852,238.352448 86.269852,264.079651 86.269852,290.000336 
	C98.216644,290.000336 109.858322,290.000336 122.500000,290.000336 
M361.240784,248.537704 
	C361.240784,252.971832 361.240784,257.405945 361.240784,261.887604 
	C365.901154,261.887604 369.926788,262.215118 373.878479,261.814178 
	C380.531677,261.139160 384.862885,256.054749 384.759399,249.667282 
	C384.654327,243.182358 380.242798,238.398285 373.526276,237.914841 
	C369.580658,237.630844 365.597870,237.863007 361.240784,237.863007 
	C361.240784,241.310318 361.240784,244.437286 361.240784,248.537704 
M343.616699,237.723450 
	C341.161865,237.723450 338.707001,237.723450 336.238586,237.723450 
	C336.238586,240.047165 336.238586,241.956665 336.238586,244.193695 
	C338.595032,244.193695 340.689270,244.193695 343.274658,244.193695 
	C343.274658,250.231430 343.274658,255.957077 343.274658,261.788849 
	C345.859741,261.788849 347.944427,261.788849 350.496887,261.788849 
	C350.496887,255.850830 350.496887,250.129868 350.496887,244.310074 
	C353.202576,244.148865 355.454926,244.014664 357.650421,243.883865 
	C357.650421,241.665207 357.650421,239.885071 357.650421,237.723480 
	C353.166016,237.723480 348.870178,237.723480 343.616699,237.723450 
M394.078217,247.690704 
	C394.078217,252.432785 394.078217,257.174866 394.078217,261.826477 
	C396.755981,261.826477 398.703308,261.826477 401.111816,261.826477 
	C401.111816,255.923355 401.111816,250.184753 401.111816,244.353638 
	C403.793732,244.158966 406.023621,243.997116 408.278687,243.833435 
	C408.278687,241.703461 408.278687,239.942566 408.278687,238.083893 
	C401.001831,238.083893 393.971466,238.083893 387.027771,238.083893 
	C387.027771,240.212875 387.027771,241.985428 387.027771,243.418365 
	C389.080566,245.761276 393.793518,241.199905 394.078217,247.690704 
z"/>
<path fill="#020202" opacity="1.000000" stroke="none" 
	d="
M122.000000,290.000336 
	C109.858322,290.000336 98.216644,290.000336 86.269852,290.000336 
	C86.269852,264.079651 86.269852,238.352448 86.269852,212.311981 
	C163.497635,212.311981 240.867172,212.311981 318.563782,212.311981 
	C318.563782,237.912003 318.563782,263.632111 318.563782,290.000336 
	C253.275391,290.000336 187.887695,290.000336 122.000000,290.000336 
M112.504425,250.362762 
	C111.467018,239.487381 105.374130,235.863495 91.642395,238.118546 
	C91.642395,245.982529 91.642395,253.880600 91.642395,261.751770 
	C105.862427,263.026276 110.580650,260.576569 112.504425,250.362762 
M297.262512,237.736404 
	C296.971069,245.282181 296.639343,252.827057 296.473236,260.375580 
	C296.461365,260.914673 297.662964,261.480499 298.300354,262.033875 
	C298.809631,261.350037 299.689301,260.701294 299.758057,259.975708 
	C299.956512,257.881012 299.828217,255.755371 299.828217,253.918839 
	C308.313232,250.577225 306.882202,263.405609 314.495819,261.791046 
	C312.530762,258.781281 310.758789,256.067169 308.869049,253.172760 
	C313.602844,250.954727 315.184326,247.282211 313.813446,242.781891 
	C312.397552,238.133896 308.315704,237.514801 304.108002,237.553680 
	C302.110168,237.572144 300.112152,237.568542 297.262512,237.736404 
M218.118164,240.584915 
	C217.282608,241.810532 216.263351,242.950470 215.644577,244.277191 
	C213.434753,249.015335 214.392578,255.087723 217.773102,258.686340 
	C221.119507,262.248627 227.241501,263.588867 232.060867,261.644592 
	C237.051697,259.631165 239.534592,255.643005 239.781570,250.442459 
	C240.007248,245.690231 238.316528,241.534927 234.024994,239.058273 
	C228.770935,236.026184 223.570557,236.451080 218.118164,240.584915 
M174.481689,251.097580 
	C177.712494,251.097580 180.943298,251.097580 184.174103,251.097580 
	C181.532639,246.116074 176.866745,249.447540 173.676544,247.521118 
	C173.676544,245.396225 173.676544,243.300385 173.676544,240.694504 
	C176.855804,240.694504 179.810394,240.818207 182.742188,240.614197 
	C183.552933,240.557770 184.295822,239.526291 185.069839,238.942169 
	C184.343262,238.492676 183.627930,237.677139 182.888245,237.654419 
	C178.771362,237.527924 174.648575,237.593689 170.391541,237.593689 
	C170.391541,245.951172 170.391541,253.822327 170.391541,261.541351 
	C175.631180,261.541351 180.587646,261.541351 185.544098,261.541351 
	C185.604630,260.910614 185.665161,260.279846 185.725693,259.649109 
	C181.684387,259.321808 177.643082,258.994537 173.610184,258.667908 
	C173.610184,256.186462 173.610184,253.869644 174.481689,251.097580 
M284.293762,259.042480 
	C281.541077,259.042480 278.788391,259.042480 276.320618,259.042480 
	C276.320618,255.936783 276.320618,253.538528 276.320618,250.698822 
	C280.053436,250.698822 283.431519,250.698822 286.809601,250.698822 
	C286.889709,250.057022 286.969818,249.415222 287.049927,248.773422 
	C283.410522,248.401428 279.771149,248.029419 276.333313,247.678024 
	C276.333313,245.210861 276.333313,242.994812 276.333313,241.024429 
	C280.437500,240.663589 284.142456,240.337860 287.847382,240.012115 
	C287.773468,239.368027 287.699554,238.723923 287.625641,238.079834 
	C282.797821,238.079834 277.970001,238.079834 273.069580,238.079834 
	C273.069580,245.975662 273.069580,253.863815 273.069580,261.671631 
	C278.225983,261.671631 283.090302,261.671631 287.954620,261.671631 
	C288.069122,261.270233 288.183624,260.868866 288.298126,260.467468 
	C287.276123,259.992615 286.254089,259.517761 284.293762,259.042480 
M131.339111,262.029816 
	C132.879898,262.029816 134.420685,262.029816 135.961472,262.029816 
	C136.019867,261.483490 136.078278,260.937134 136.136673,260.390808 
	C132.790573,257.172272 127.996643,260.340881 124.186951,258.539368 
	C124.186951,256.192291 124.186951,253.792862 124.186951,250.748077 
	C127.873726,250.748077 131.360962,250.748077 134.848206,250.748077 
	C134.914734,250.053009 134.981262,249.357941 135.047775,248.662872 
	C131.370911,248.341415 127.694038,248.019943 124.203796,247.714783 
	C124.203796,245.227524 124.203796,243.116837 124.203796,241.005173 
	C128.248489,240.698853 132.056183,240.410492 135.863876,240.122116 
	C135.821014,239.497940 135.778168,238.873764 135.735306,238.249588 
	C130.858398,238.249588 125.981468,238.249588 121.119675,238.249588 
	C121.119675,246.088074 121.119675,253.963165 121.119675,262.029816 
	C124.428993,262.029816 127.405449,262.029816 131.339111,262.029816 
M263.126282,251.561691 
	C265.855713,248.427658 266.289642,244.792740 264.069214,241.489075 
	C259.997742,235.431290 253.704697,238.325943 247.990540,237.492615 
	C247.990540,245.305115 247.941284,252.429672 248.056931,259.551575 
	C248.070404,260.381104 248.995941,261.195862 249.498627,262.017487 
	C250.039352,261.232635 250.929840,260.496674 251.047729,259.652771 
	C251.290573,257.914124 251.120804,256.117859 251.120804,255.023773 
	C255.337814,253.941544 258.927399,253.020325 263.126282,251.561691 
M146.591660,250.991074 
	C147.793320,254.086563 148.868774,257.239197 150.236099,260.259705 
	C151.353134,262.727264 153.330383,263.266022 154.501526,260.530914 
	C157.660416,253.153641 160.458878,245.622025 163.400391,238.151672 
	C162.690964,237.792786 161.981522,237.433899 161.272095,237.075012 
	C157.104828,242.707458 156.085693,250.121613 152.293198,256.725983 
	C150.698196,252.705032 149.290634,249.186035 147.905365,245.658295 
	C144.908752,238.027039 144.913437,238.025208 141.542892,238.224518 
	C143.123505,242.308716 144.672211,246.310425 146.591660,250.991074 
M197.087082,253.379425 
	C197.086121,248.886307 197.143875,244.391632 197.025604,239.901596 
	C197.006180,239.164490 196.212662,238.447769 195.776901,237.721634 
	C195.192261,238.463516 194.113022,239.196671 194.099762,239.948639 
	C193.971756,247.207352 194.022980,254.469238 194.022980,261.751007 
	C199.309616,261.751007 204.065002,261.751007 209.994324,261.751007 
	C205.954498,257.037201 201.135773,260.365295 197.087082,258.424500 
	C197.087082,257.254517 197.087082,255.801636 197.087082,253.379425 
z"/>
<path fill="#0B0B0B" opacity="1.000000" stroke="none" 
	d="
M361.240784,248.050980 
	C361.240784,244.437286 361.240784,241.310318 361.240784,237.863007 
	C365.597870,237.863007 369.580658,237.630844 373.526276,237.914841 
	C380.242798,238.398285 384.654327,243.182358 384.759399,249.667282 
	C384.862885,256.054749 380.531677,261.139160 373.878479,261.814178 
	C369.926788,262.215118 365.901154,261.887604 361.240784,261.887604 
	C361.240784,257.405945 361.240784,252.971832 361.240784,248.050980 
M372.891907,244.113968 
	C371.460388,244.113968 370.028870,244.113968 368.234985,244.113968 
	C368.234985,246.202682 368.234985,247.988007 368.234985,249.773346 
	C368.234985,251.688995 368.234985,253.604660 368.234985,255.481079 
	C373.997681,255.778397 376.169037,254.931595 377.059326,251.972168 
	C378.089264,248.548508 377.188751,245.808624 372.891907,244.113968 
z"/>
<path fill="#080808" opacity="1.000000" stroke="none" 
	d="
M344.095520,237.723465 
	C348.870178,237.723480 353.166016,237.723480 357.650421,237.723480 
	C357.650421,239.885071 357.650421,241.665207 357.650421,243.883865 
	C355.454926,244.014664 353.202576,244.148865 350.496887,244.310074 
	C350.496887,250.129868 350.496887,255.850830 350.496887,261.788849 
	C347.944427,261.788849 345.859741,261.788849 343.274658,261.788849 
	C343.274658,255.957077 343.274658,250.231430 343.274658,244.193695 
	C340.689270,244.193695 338.595032,244.193695 336.238586,244.193695 
	C336.238586,241.956665 336.238586,240.047165 336.238586,237.723450 
	C338.707001,237.723450 341.161865,237.723450 344.095520,237.723465 
z"/>
<path fill="#060606" opacity="1.000000" stroke="none" 
	d="
M394.077759,247.212921 
	C393.793518,241.199905 389.080566,245.761276 387.027771,243.418365 
	C387.027771,241.985428 387.027771,240.212875 387.027771,238.083893 
	C393.971466,238.083893 401.001831,238.083893 408.278687,238.083893 
	C408.278687,239.942566 408.278687,241.703461 408.278687,243.833435 
	C406.023621,243.997116 403.793732,244.158966 401.111816,244.353638 
	C401.111816,250.184753 401.111816,255.923355 401.111816,261.826477 
	C398.703308,261.826477 396.755981,261.826477 394.078217,261.826477 
	C394.078217,257.174866 394.078217,252.432785 394.077759,247.212921 
z"/>
<path fill="#DEDEDE" opacity="1.000000" stroke="none" 
	d="
M112.456070,250.752930 
	C110.580650,260.576569 105.862427,263.026276 91.642395,261.751770 
	C91.642395,253.880600 91.642395,245.982529 91.642395,238.118546 
	C105.374130,235.863495 111.467018,239.487381 112.456070,250.752930 
M99.157890,258.970154 
	C106.462418,258.335114 109.887451,254.577225 108.988266,248.184418 
	C108.149155,242.218719 103.113396,239.776749 94.832657,241.499283 
	C94.832657,246.251053 95.009331,251.069489 94.766396,255.866684 
	C94.620659,258.744720 95.882927,259.306580 99.157890,258.970154 
z"/>
<path fill="#DEDEDE" opacity="1.000000" stroke="none" 
	d="
M297.688354,237.655670 
	C300.112152,237.568542 302.110168,237.572144 304.108002,237.553680 
	C308.315704,237.514801 312.397552,238.133896 313.813446,242.781891 
	C315.184326,247.282211 313.602844,250.954727 308.869049,253.172760 
	C310.758789,256.067169 312.530762,258.781281 314.495819,261.791046 
	C306.882202,263.405609 308.313232,250.577225 299.828217,253.918839 
	C299.828217,255.755371 299.956512,257.881012 299.758057,259.975708 
	C299.689301,260.701294 298.809631,261.350037 298.300354,262.033875 
	C297.662964,261.480499 296.461365,260.914673 296.473236,260.375580 
	C296.639343,252.827057 296.971069,245.282181 297.688354,237.655670 
M303.311401,250.149612 
	C309.141479,249.960373 311.386932,248.376541 310.875275,244.814514 
	C310.348907,241.150131 307.413666,240.187729 299.825531,241.363327 
	C299.825531,243.425613 299.564331,245.596024 299.941528,247.649139 
	C300.116241,248.600220 301.534546,249.322830 303.311401,250.149612 
z"/>
<path fill="#E9E9E9" opacity="1.000000" stroke="none" 
	d="
M218.395523,240.334824 
	C223.570557,236.451080 228.770935,236.026184 234.024994,239.058273 
	C238.316528,241.534927 240.007248,245.690231 239.781570,250.442459 
	C239.534592,255.643005 237.051697,259.631165 232.060867,261.644592 
	C227.241501,263.588867 221.119507,262.248627 217.773102,258.686340 
	C214.392578,255.087723 213.434753,249.015335 215.644577,244.277191 
	C216.263351,242.950470 217.282608,241.810532 218.395523,240.334824 
M225.757721,240.487900 
	C219.635925,242.242935 217.314697,245.415543 217.914154,251.208267 
	C218.399307,255.896362 221.708771,258.955750 226.515045,259.159210 
	C232.106506,259.395905 235.839874,256.230011 236.286987,250.872604 
	C236.808823,244.619400 233.781830,241.337296 225.757721,240.487900 
z"/>
<path fill="#E9E9E9" opacity="1.000000" stroke="none" 
	d="
M174.045929,251.325195 
	C173.610184,253.869644 173.610184,256.186462 173.610184,258.667908 
	C177.643082,258.994537 181.684387,259.321808 185.725693,259.649109 
	C185.665161,260.279846 185.604630,260.910614 185.544098,261.541351 
	C180.587646,261.541351 175.631180,261.541351 170.391541,261.541351 
	C170.391541,253.822327 170.391541,245.951172 170.391541,237.593689 
	C174.648575,237.593689 178.771362,237.527924 182.888245,237.654419 
	C183.627930,237.677139 184.343262,238.492676 185.069839,238.942169 
	C184.295822,239.526291 183.552933,240.557770 182.742188,240.614197 
	C179.810394,240.818207 176.855804,240.694504 173.676544,240.694504 
	C173.676544,243.300385 173.676544,245.396225 173.676544,247.521118 
	C176.866745,249.447540 181.532639,246.116074 184.174103,251.097580 
	C180.943298,251.097580 177.712494,251.097580 174.045929,251.325195 
z"/>
<path fill="#EEEEEE" opacity="1.000000" stroke="none" 
	d="
M284.762939,259.042664 
	C286.254089,259.517761 287.276123,259.992615 288.298126,260.467468 
	C288.183624,260.868866 288.069122,261.270233 287.954620,261.671631 
	C283.090302,261.671631 278.225983,261.671631 273.069580,261.671631 
	C273.069580,253.863815 273.069580,245.975662 273.069580,238.079834 
	C277.970001,238.079834 282.797821,238.079834 287.625641,238.079834 
	C287.699554,238.723923 287.773468,239.368027 287.847382,240.012115 
	C284.142456,240.337860 280.437500,240.663589 276.333313,241.024429 
	C276.333313,242.994812 276.333313,245.210861 276.333313,247.678024 
	C279.771149,248.029419 283.410522,248.401428 287.049927,248.773422 
	C286.969818,249.415222 286.889709,250.057022 286.809601,250.698822 
	C283.431519,250.698822 280.053436,250.698822 276.320618,250.698822 
	C276.320618,253.538528 276.320618,255.936783 276.320618,259.042480 
	C278.788391,259.042480 281.541077,259.042480 284.762939,259.042664 
z"/>
<path fill="#EEEEEE" opacity="1.000000" stroke="none" 
	d="
M130.860504,262.029816 
	C127.405449,262.029816 124.428993,262.029816 121.119675,262.029816 
	C121.119675,253.963165 121.119675,246.088074 121.119675,238.249588 
	C125.981468,238.249588 130.858398,238.249588 135.735306,238.249588 
	C135.778168,238.873764 135.821014,239.497940 135.863876,240.122116 
	C132.056183,240.410492 128.248489,240.698853 124.203796,241.005173 
	C124.203796,243.116837 124.203796,245.227524 124.203796,247.714783 
	C127.694038,248.019943 131.370911,248.341415 135.047775,248.662872 
	C134.981262,249.357941 134.914734,250.053009 134.848206,250.748077 
	C131.360962,250.748077 127.873726,250.748077 124.186951,250.748077 
	C124.186951,253.792862 124.186951,256.192291 124.186951,258.539368 
	C127.996643,260.340881 132.790573,257.172272 136.136673,260.390808 
	C136.078278,260.937134 136.019867,261.483490 135.961472,262.029816 
	C134.420685,262.029816 132.879898,262.029816 130.860504,262.029816 
z"/>
<path fill="#EEEEEE" opacity="1.000000" stroke="none" 
	d="
M262.821655,251.830414 
	C258.927399,253.020325 255.337814,253.941544 251.120804,255.023773 
	C251.120804,256.117859 251.290573,257.914124 251.047729,259.652771 
	C250.929840,260.496674 250.039352,261.232635 249.498627,262.017487 
	C248.995941,261.195862 248.070404,260.381104 248.056931,259.551575 
	C247.941284,252.429672 247.990540,245.305115 247.990540,237.492615 
	C253.704697,238.325943 259.997742,235.431290 264.069214,241.489075 
	C266.289642,244.792740 265.855713,248.427658 262.821655,251.830414 
M254.401489,251.056961 
	C260.308868,250.825729 262.476379,249.144104 262.003204,245.159378 
	C261.536957,241.232910 258.965271,240.234787 251.110321,241.162323 
	C251.110321,243.707855 250.926193,246.334717 251.220230,248.906921 
	C251.310837,249.699677 252.706177,250.343307 254.401489,251.056961 
z"/>
<path fill="#E9E9E9" opacity="1.000000" stroke="none" 
	d="
M146.406281,250.651611 
	C144.672211,246.310425 143.123505,242.308716 141.542892,238.224518 
	C144.913437,238.025208 144.908752,238.027039 147.905365,245.658295 
	C149.290634,249.186035 150.698196,252.705032 152.293198,256.725983 
	C156.085693,250.121613 157.104828,242.707458 161.272095,237.075012 
	C161.981522,237.433899 162.690964,237.792786 163.400391,238.151672 
	C160.458878,245.622025 157.660416,253.153641 154.501526,260.530914 
	C153.330383,263.266022 151.353134,262.727264 150.236099,260.259705 
	C148.868774,257.239197 147.793320,254.086563 146.406281,250.651611 
z"/>
<path fill="#FDFDFD" opacity="1.000000" stroke="none" 
	d="
M197.087082,253.864090 
	C197.087082,255.801636 197.087082,257.254517 197.087082,258.424500 
	C201.135773,260.365295 205.954498,257.037201 209.994324,261.751007 
	C204.065002,261.751007 199.309616,261.751007 194.022980,261.751007 
	C194.022980,254.469238 193.971756,247.207352 194.099762,239.948639 
	C194.113022,239.196671 195.192261,238.463516 195.776917,237.721634 
	C196.212662,238.447769 197.006180,239.164490 197.025604,239.901596 
	C197.143875,244.391632 197.086121,248.886307 197.087082,253.864090 
z"/>
<path fill="#EEEEEE" opacity="1.000000" stroke="none" 
	d="
M373.287384,244.206482 
	C377.188751,245.808624 378.089264,248.548508 377.059326,251.972168 
	C376.169037,254.931595 373.997681,255.778397 368.234985,255.481079 
	C368.234985,253.604660 368.234985,251.688995 368.234985,249.773346 
	C368.234985,247.988007 368.234985,246.202682 368.234985,244.113968 
	C370.028870,244.113968 371.460388,244.113968 373.287384,244.206482 
z"/>
<path fill="#020202" opacity="1.000000" stroke="none" 
	d="
M98.710983,258.970642 
	C95.882927,259.306580 94.620659,258.744720 94.766396,255.866684 
	C95.009331,251.069489 94.832657,246.251053 94.832657,241.499283 
	C103.113396,239.776749 108.149155,242.218719 108.988266,248.184418 
	C109.887451,254.577225 106.462418,258.335114 98.710983,258.970642 
z"/>
<path fill="#060606" opacity="1.000000" stroke="none" 
	d="
M302.850220,250.149323 
	C301.534546,249.322830 300.116241,248.600220 299.941528,247.649139 
	C299.564331,245.596024 299.825531,243.425613 299.825531,241.363327 
	C307.413666,240.187729 310.348907,241.150131 310.875275,244.814514 
	C311.386932,248.376541 309.141479,249.960373 302.850220,250.149323 
z"/>
<path fill="#060606" opacity="1.000000" stroke="none" 
	d="
M226.181335,240.431213 
	C233.781830,241.337296 236.808823,244.619400 236.286987,250.872604 
	C235.839874,256.230011 232.106506,259.395905 226.515045,259.159210 
	C221.708771,258.955750 218.399307,255.896362 217.914154,251.208267 
	C217.314697,245.415543 219.635925,242.242935 226.181335,240.431213 
z"/>
<path fill="#080808" opacity="1.000000" stroke="none" 
	d="
M253.952789,251.056091 
	C252.706177,250.343307 251.310837,249.699677 251.220230,248.906921 
	C250.926193,246.334717 251.110321,243.707855 251.110321,241.162323 
	C258.965271,240.234787 261.536957,241.232910 262.003204,245.159378 
	C262.476379,249.144104 260.308868,250.825729 253.952789,251.056091 
z"/>
</svg>